<svg id="arrow" xmlns="http://www.w3.org/2000/svg" width="21.888" height="18.771" viewBox="0 0 21.888 18.771">
  <g id="Group_1" data-name="Group 1">
    <path id="Path_13" data-name="Path 13" d="M1.315,39.691a1.564,1.564,0,0,1,.271-.02H17.028l-.337-.157a3.132,3.132,0,0,1-.885-.626l-4.33-4.33a1.621,1.621,0,0,1-.227-2.075,1.566,1.566,0,0,1,2.349-.2l7.83,7.83a1.566,1.566,0,0,1,0,2.215h0l-7.83,7.83A1.566,1.566,0,0,1,11.249,50a1.621,1.621,0,0,1,.227-2.075L15.8,43.586a3.132,3.132,0,0,1,.783-.572l.47-.211H1.672A1.621,1.621,0,0,1,.02,41.487,1.566,1.566,0,0,1,1.315,39.691Z" transform="translate(0 -31.842)" fill="#506f73"/>
  </g>
</svg>
