<svg xmlns="http://www.w3.org/2000/svg" width="33.511" height="39.604" viewBox="0 0 33.511 39.604">
  <g id="avatar" transform="translate(-39.385)">
    <g id="Group_2" data-name="Group 2" transform="translate(39.385)">
      <path id="Path_18" data-name="Path 18" d="M62.111,18.364a10.155,10.155,0,1,0-11.941,0A16.783,16.783,0,0,0,39.385,34.019,5.592,5.592,0,0,0,44.97,39.6H67.311A5.592,5.592,0,0,0,72.9,34.019,16.783,16.783,0,0,0,62.111,18.364ZM49.032,10.155a7.108,7.108,0,1,1,7.108,7.109A7.117,7.117,0,0,1,49.032,10.155Zm18.279,26.4H44.97a2.542,2.542,0,0,1-2.539-2.539,13.709,13.709,0,1,1,27.418,0A2.542,2.542,0,0,1,67.311,36.558Z" transform="translate(-39.385)" fill="#ff6531"/>
    </g>
  </g>
</svg>
