<svg xmlns="http://www.w3.org/2000/svg" width="36.86" height="40.211" viewBox="0 0 36.86 40.211">
  <g id="copy_1_" data-name="copy (1)" transform="translate(-1)">
    <path id="Path_19" data-name="Path 19" d="M30.294,37.509H10.189A4.193,4.193,0,0,1,6,33.32V8.189A4.193,4.193,0,0,1,10.189,4H30.294a4.193,4.193,0,0,1,4.189,4.189V33.32A4.193,4.193,0,0,1,30.294,37.509ZM10.189,5.675A2.516,2.516,0,0,0,7.675,8.189V33.32a2.516,2.516,0,0,0,2.513,2.513H30.294a2.516,2.516,0,0,0,2.513-2.513V8.189a2.516,2.516,0,0,0-2.513-2.513Z" transform="translate(3.377 2.702)" fill="#ff6531"/>
    <path id="Path_20" data-name="Path 20" d="M6.864,35.184H5.189A4.193,4.193,0,0,1,1,31V4.189A4.193,4.193,0,0,1,5.189,0H25.294a4.193,4.193,0,0,1,4.189,4.189.838.838,0,1,1-1.675,0,2.516,2.516,0,0,0-2.513-2.513H5.189A2.516,2.516,0,0,0,2.675,4.189V31a2.516,2.516,0,0,0,2.513,2.513H6.864a.838.838,0,0,1,0,1.675Z" fill="#ff6531"/>
    <path id="Path_21" data-name="Path 21" d="M24.241,17.675h-13.4a.838.838,0,1,1,0-1.675h13.4a.838.838,0,1,1,0,1.675Z" transform="translate(6.079 10.807)" fill="#ff6531"/>
    <path id="Path_22" data-name="Path 22" d="M24.241,21.675h-13.4a.838.838,0,1,1,0-1.675h13.4a.838.838,0,1,1,0,1.675Z" transform="translate(6.079 13.509)" fill="#ff6531"/>
    <path id="Path_23" data-name="Path 23" d="M24.241,13.675h-13.4a.838.838,0,1,1,0-1.675h13.4a.838.838,0,1,1,0,1.675Z" transform="translate(6.079 8.105)" fill="#ff6531"/>
    <path id="Path_24" data-name="Path 24" d="M24.241,9.675h-13.4a.838.838,0,1,1,0-1.675h13.4a.838.838,0,1,1,0,1.675Z" transform="translate(6.079 5.403)" fill="#ff6531"/>
  </g>
</svg>
