<svg xmlns="http://www.w3.org/2000/svg" width="25.499" height="44.586" viewBox="0 0 25.499 44.586">
  <g id="dollar" transform="translate(-109.589 0)">
    <g id="Group_6" data-name="Group 6" transform="translate(109.589 0)">
      <path id="Path_31" data-name="Path 31" d="M124.309,19.507V9.6a13.209,13.209,0,0,1,5.826,2.533,2.085,2.085,0,0,0,1.154.366,2.42,2.42,0,0,0,2.42-2.392,2.149,2.149,0,0,0-.619-1.52,14.852,14.852,0,0,0-8.809-3.546V1.72A1.716,1.716,0,0,0,122.564,0a.42.42,0,0,0-.059,0,1.745,1.745,0,0,0-1.77,1.72V4.928C114.4,5.378,110.1,9.291,110.1,14.5c0,6.389,5.432,8.162,10.639,9.569V35.324a14.609,14.609,0,0,1-7.458-3.293,2.343,2.343,0,0,0-1.407-.507A2.449,2.449,0,0,0,109.589,34a2.149,2.149,0,0,0,.619,1.52,16.576,16.576,0,0,0,10.554,4.25v3.1c0,.02,0,.039,0,.059a1.742,1.742,0,0,0,1.827,1.658,1.716,1.716,0,0,0,1.717-1.717V39.715c7.683-.507,10.779-5.179,10.779-10.132C135.088,22.941,129.515,20.914,124.309,19.507Zm-3.546-.9c-3.068-.9-5.46-1.829-5.46-4.447s2.167-4.5,5.46-4.756Zm3.546,16.774V25.136c3.18.9,5.657,2.111,5.629,5.066C129.938,32.341,128.474,34.874,124.309,35.381Z" transform="translate(-109.589 0)" fill="#ff6531"/>
    </g>
  </g>
</svg>
