<svg xmlns="http://www.w3.org/2000/svg" width="40.098" height="40.082" viewBox="0 0 40.098 40.082">
  <g id="XMLID_1062_" transform="translate(0 -0.102)">
    <g id="XMLID_727_" transform="translate(0 0.102)">
      <path id="XMLID_728_" d="M326.254,283.261a.785.785,0,1,0,.553-.229A.788.788,0,0,0,326.254,283.261Z" transform="translate(-300.502 -260.883)" fill="#f15d2a"/>
      <path id="XMLID_1327_" d="M39.6,37.3l-.049-.049-2.067-8.688a8.186,8.186,0,0,0-7.99-6.312h-.058a.783.783,0,0,0,0,1.566H29.5a6.625,6.625,0,0,1,6.467,5.109l1.479,6.214-6.667-6.667a.783.783,0,0,0-.554-.229H26.735a.781.781,0,0,0-.285.054,12.823,12.823,0,0,0-12.8,0,.782.782,0,0,0-.284-.054H9.878a.783.783,0,0,0-.554.229L2.652,35.144l1.469-6.21a6.624,6.624,0,0,1,6.469-5.117H16.6a5.214,5.214,0,0,0,7.131-.229.783.783,0,0,0,.229-.554V19.017A7.42,7.42,0,0,0,27.3,14.152h.609a2.665,2.665,0,0,0,2.662-2.662v-.422a2.665,2.665,0,0,0-2.662-2.662H27.44V7.5a7.4,7.4,0,1,0-14.8,0v.9h-.473A2.665,2.665,0,0,0,9.5,11.068v.422a2.665,2.665,0,0,0,2.662,2.662h.609a7.42,7.42,0,0,0,3.348,4.865v3.234h-5.53A8.214,8.214,0,0,0,2.6,28.573L.545,37.251.5,37.3A1.689,1.689,0,0,0,1.69,40.184h5.3a.783.783,0,0,0,.674-.384l2.627-4.44.24.155a2.125,2.125,0,0,0,.75.3,9.421,9.421,0,0,0-.706,3.588.783.783,0,1,0,1.566,0,7.871,7.871,0,0,1,1.793-5.008l3.323,3.323a3.242,3.242,0,0,0-.47,1.685.783.783,0,1,0,1.566,0,1.7,1.7,0,0,1,3.393,0,.783.783,0,1,0,1.566,0,3.242,3.242,0,0,0-.47-1.685l3.323-3.323A7.871,7.871,0,0,1,27.957,39.4a.783.783,0,0,0,1.566,0,9.421,9.421,0,0,0-.706-3.588,2.125,2.125,0,0,0,.75-.3l.24-.155,2.627,4.44a.783.783,0,0,0,.674.384h5.3A1.689,1.689,0,0,0,39.6,37.3ZM29.009,11.068v.422a1.1,1.1,0,0,1-1.1,1.1H27.44V9.972h.473A1.1,1.1,0,0,1,29.009,11.068ZM14.2,7.5a5.835,5.835,0,0,1,11.67,0v.9H23.818a2.23,2.23,0,0,1-1.147-.314A10.133,10.133,0,0,0,23.9,7.044a.783.783,0,0,0-1.107-1.107,8.376,8.376,0,0,1-5.962,2.469H14.2V7.5ZM11.069,11.49v-.422a1.1,1.1,0,0,1,1.1-1.1h.473v2.614h-.473A1.1,1.1,0,0,1,11.069,11.49ZM14.2,12.742V9.972h2.628a9.957,9.957,0,0,0,4.4-1.014,3.783,3.783,0,0,0,2.588,1.014h2.056v2.769a5.835,5.835,0,0,1-11.67,0Zm5.835,7.4a7.372,7.372,0,0,0,2.352-.383v2.932a3.656,3.656,0,0,1-4.7,0V19.758A7.372,7.372,0,0,0,20.039,20.142Zm5.474,9.423-.635,1.086a2.137,2.137,0,0,0-.207.483,9.455,9.455,0,0,0-9.244,0,2.136,2.136,0,0,0-.207-.483l-.635-1.086a11.256,11.256,0,0,1,10.927,0ZM6.544,38.618H1.69a.123.123,0,0,1-.087-.211l4.45-4.45L8.094,36ZM10.455,33.6a.783.783,0,0,0-1.1.26l-.441.745L7.16,32.851,10.2,29.808h2.712l.955,1.633a.579.579,0,0,1-.058.666l-1.678,1.978a.581.581,0,0,1-.754.112Zm7.909,3.005-3.323-3.323a7.892,7.892,0,0,1,10.017,0l-3.323,3.323a3.256,3.256,0,0,0-3.37,0ZM29.643,33.6l-.924.594a.58.58,0,0,1-.754-.112l-1.678-1.978a.579.579,0,0,1-.058-.666l.955-1.633H29.9l3.043,3.043-1.757,1.757-.441-.745a.783.783,0,0,0-1.1-.26Zm8.879,4.938a.112.112,0,0,1-.114.076H33.554L32,36l2.041-2.041,4.45,4.45A.112.112,0,0,1,38.522,38.542Z" transform="translate(0 -0.102)" fill="#f15d2a"/>
    </g>
  </g>
</svg>
