<svg xmlns="http://www.w3.org/2000/svg" width="360.288" height="212.484" viewBox="0 0 360.288 212.484">
  <g id="Group_29" data-name="Group 29" transform="translate(-1847.839 -600.149)">
    <g id="Group_26" data-name="Group 26" transform="translate(1847.839 600.149)">
      <path id="Path_4" data-name="Path 4" d="M2384,891.1H2141.236a2.127,2.127,0,0,1-2.127-2.127V821.9a2.127,2.127,0,0,1,2.127-2.127h271.223Z" transform="translate(-2128.033 -736.668)" fill="#f59f2f"/>
      <g id="Group_6" data-name="Group 6" transform="translate(197.61 103.996)">
        <path id="Path_5" data-name="Path 5" d="M2636.908,918.717a5.157,5.157,0,0,1-4.474-7.024l13.093-33.43a5.153,5.153,0,0,1,9.6,3.758l-13.093,33.43A5.156,5.156,0,0,1,2636.908,918.717Z" transform="translate(-2632.078 -874.989)" fill="#fcc435"/>
      </g>
      <path id="Path_6" data-name="Path 6" d="M2672.156,875.345a5.154,5.154,0,0,0-6.678,2.919l-1.3,3.328,1.9,2.882a4.89,4.89,0,0,0,7.9.369l1.1-2.821A5.153,5.153,0,0,0,2672.156,875.345Z" transform="translate(-2454.42 -770.992)" fill="#f59f2f"/>
      <path id="Path_7" data-name="Path 7" d="M2144.295,819.771h-3.059a2.127,2.127,0,0,0-2.127,2.127v67.075a2.127,2.127,0,0,0,2.127,2.127h3.059Z" transform="translate(-2128.033 -736.668)" fill="#282828"/>
      <g id="Group_7" data-name="Group 7" transform="translate(15.198 82.039)">
        <path id="Path_8" data-name="Path 8" d="M2151.067,890.417a1.063,1.063,0,0,1-1.063-1.063V818.024a1.063,1.063,0,1,1,2.126,0v71.329A1.063,1.063,0,0,1,2151.067,890.417Z" transform="translate(-2150.004 -816.961)" fill="#bbbbba"/>
      </g>
      <g id="Group_8" data-name="Group 8" transform="translate(0 81.059)">
        <path id="Path_9" data-name="Path 9" d="M2124.755,992.352h-13.742a1.173,1.173,0,0,1-1.173-1.173h0a1.174,1.174,0,0,1,1.173-1.173h13.742a1.173,1.173,0,0,1,1.173,1.173h0A1.173,1.173,0,0,1,2124.755,992.352Z" transform="translate(-2109.839 -923.547)" fill="#282828"/>
        <path id="Path_10" data-name="Path 10" d="M2136.677,960.775h-13.742a1.173,1.173,0,0,1-1.173-1.173h0a1.173,1.173,0,0,1,1.173-1.173h13.742a1.173,1.173,0,0,1,1.174,1.173h0A1.173,1.173,0,0,1,2136.677,960.775Z" transform="translate(-2117.251 -903.919)" fill="#282828"/>
        <path id="Path_11" data-name="Path 11" d="M2148.6,929.2h-13.742a1.173,1.173,0,0,1-1.173-1.173h0a1.173,1.173,0,0,1,1.173-1.173H2148.6a1.173,1.173,0,0,1,1.173,1.173h0A1.173,1.173,0,0,1,2148.6,929.2Z" transform="translate(-2124.661 -884.29)" fill="#282828"/>
        <path id="Path_12" data-name="Path 12" d="M2160.522,897.621H2146.78a1.173,1.173,0,0,1-1.173-1.173h0a1.173,1.173,0,0,1,1.173-1.173h13.742a1.174,1.174,0,0,1,1.174,1.173h0A1.174,1.174,0,0,1,2160.522,897.621Z" transform="translate(-2132.073 -864.661)" fill="#282828"/>
        <path id="Path_13" data-name="Path 13" d="M2172.445,866.044H2158.7a1.173,1.173,0,0,1-1.173-1.173h0a1.173,1.173,0,0,1,1.173-1.173h13.742a1.173,1.173,0,0,1,1.173,1.173h0A1.173,1.173,0,0,1,2172.445,866.044Z" transform="translate(-2139.484 -845.033)" fill="#282828"/>
        <path id="Path_14" data-name="Path 14" d="M2184.367,834.467h-13.742a1.173,1.173,0,0,1-1.173-1.173h0a1.173,1.173,0,0,1,1.173-1.173h13.742a1.173,1.173,0,0,1,1.173,1.173h0A1.173,1.173,0,0,1,2184.367,834.467Z" transform="translate(-2146.895 -825.404)" fill="#282828"/>
        <path id="Path_15" data-name="Path 15" d="M2126.866,888.248l28.087-73.878h-16.8l-28.2,74.188a1.614,1.614,0,0,0,1.509,2.188h11.79A3.875,3.875,0,0,0,2126.866,888.248Z" transform="translate(-2109.84 -814.37)" fill="#3f3f3f"/>
      </g>
      <path id="Path_16" data-name="Path 16" d="M2190.42,819.771v1.255a.708.708,0,0,0,.708.708H2309.21a.708.708,0,0,0,.708-.708v-1.255Z" transform="translate(-2159.929 -736.668)" fill="#764411" opacity="0.3"/>
      <path id="Path_17" data-name="Path 17" d="M2451.276,829.338l3.817-9.567H2306.406a7.283,7.283,0,0,1-6.916,9.567h-64.267a9.6,9.6,0,0,0-9.1,6.557L2207.7,891.1h127.6l-9.807-25.883a7.071,7.071,0,0,1,5.378-9.469l56.781-10.07a5.665,5.665,0,0,1,6.37,7.37l-12.7,38.052h45.311l24.643-61.763Z" transform="translate(-2170.669 -736.668)" fill="#aa6316"/>
      <path id="Path_18" data-name="Path 18" d="M2664.851,863.6a4.886,4.886,0,0,1-8.448.5l-3.487-5.294-3.486-5.295a4.886,4.886,0,0,1,3.794-7.564l6.328-.372,6.329-.372a4.886,4.886,0,0,1,4.654,7.068l-2.842,5.666Z" transform="translate(-2444.75 -752.47)" fill="#fcc435"/>
      <rect id="Rectangle_11" data-name="Rectangle 11" width="2.011" height="4.526" rx="0.643" transform="translate(32.973 119.259)" fill="#3f3f3f"/>
      <rect id="Rectangle_12" data-name="Rectangle 12" width="16.898" height="4.526" rx="1.864" transform="translate(25.529 117.405)" fill="#fcc435"/>
      <rect id="Rectangle_13" data-name="Rectangle 13" width="16.898" height="4.526" transform="translate(25.529 115.729)" fill="#764411" opacity="0.3"/>
      <path id="Path_19" data-name="Path 19" d="M2320.563,684.456h-53.822l-9.325,30.755V731.57h63.147Z" transform="translate(-2201.575 -652.555)" fill="#fcc435"/>
      <path id="Path_20" data-name="Path 20" d="M2257.416,715.212l12.2-4.593a2.633,2.633,0,0,0,1.705-2.464v-23.7h-4.58Z" transform="translate(-2201.574 -652.555)" fill="#b7dfeb"/>
      <path id="Path_21" data-name="Path 21" d="M2271.321,731.585h0a11.14,11.14,0,0,0-6.285-1.942h-3.48l-4.141,13.657,12.2-4.593a2.633,2.633,0,0,0,1.705-2.464Z" transform="translate(-2201.574 -680.644)" fill="#5caac0"/>
      <rect id="Rectangle_14" data-name="Rectangle 14" width="21.102" height="22.329" rx="3.516" transform="translate(75.208 35.013)" fill="#b7dfeb"/>
      <path id="Path_22" data-name="Path 22" d="M2308.6,732.392l7.054,4.962H2321l-12.406-8.728Z" transform="translate(-2233.389 -680.012)" fill="#5caac0"/>
      <path id="Path_23" data-name="Path 23" d="M2355.073,718.224a3.116,3.116,0,0,0-3.051,2.481l-2.122,10.182h4.143a1.33,1.33,0,0,0,1.331-1.33V718.224Z" transform="translate(-2259.064 -673.546)" fill="#5caac0"/>
      <path id="Path_24" data-name="Path 24" d="M2308.6,744.637v1.339a1.33,1.33,0,0,0,1.331,1.33h2.575Z" transform="translate(-2233.389 -689.964)" fill="#5caac0"/>
      <rect id="Rectangle_15" data-name="Rectangle 15" width="11.655" height="22.329" rx="4.292" transform="translate(103.058 35.013)" fill="#b7dfeb"/>
      <g id="Group_9" data-name="Group 9" transform="translate(72.591 33.209)">
        <path id="Path_25" data-name="Path 25" d="M2328.017,733.72h-.818V689.5a.768.768,0,0,0-.767-.767h-23.168a.767.767,0,0,0-.767.767V733.72h-.818V689.5a1.587,1.587,0,0,1,1.584-1.585h23.168a1.587,1.587,0,0,1,1.585,1.585Z" transform="translate(-2301.68 -687.914)" fill="#b76816"/>
      </g>
      <path id="Path_26" data-name="Path 26" d="M2626.3,646.326l-190.015-10.247-16.6-28.949a5.1,5.1,0,0,0-4.426-2.563h-14.237a21.719,21.719,0,0,1-7.105-1.2l-5.856-2.027a21.726,21.726,0,0,0-7.106-1.2h-1.943a1.088,1.088,0,0,0-1.087,1.088V612.8a1.088,1.088,0,0,0,1.087,1.088h14.149a2.069,2.069,0,0,1,1.965,1.421l28.394,86.018,18.448,10.651,192.054-34.322,2.752-11.092Z" transform="translate(-2276.48 -600.149)" fill="#f59f2f"/>
      <path id="Path_27" data-name="Path 27" d="M2667.813,853.14l-6.259,1.01-6.258,1.01a4.853,4.853,0,0,0-3.947,3.585l3.042,4.621,16.183-2.892,1.658-3.306a4.907,4.907,0,0,0,.509-1.786A4.856,4.856,0,0,0,2667.813,853.14Z" transform="translate(-2446.447 -757.37)" fill="#764411" opacity="0.3"/>
      <path id="Path_28" data-name="Path 28" d="M2444.061,703.142l-1.892-5.572,10.855,6.055Z" transform="translate(-2316.419 -660.707)" fill="#764411" opacity="0.3"/>
      <path id="Path_29" data-name="Path 29" d="M2498.416,810.442l213.255-34.762-2.753,11.092-192.053,34.322Z" transform="translate(-2351.383 -709.26)" fill="#ec8d1d"/>
      <path id="Path_30" data-name="Path 30" d="M2649.434,711.338l19.308,1.041-2.864-5.537c-8.378.377-16.762.556-25.146.193-6.189-.268-12.36-.881-18.529-1.426q-9.283-.82-18.561-1.673c-12.21-1.112-24.42-2.227-36.64-3.226q-9.294-.76-18.6-1.416a176.8,176.8,0,0,0-18.082-.035,172.4,172.4,0,0,1-18.388-.069c-6.292-.466-12.54-1.42-18.788-2.286a126.6,126.6,0,0,0-15.872-1.212,12.326,12.326,0,0,1-4.437-.835q-1.716.011-3.432,0c-6.726-.036-13.457-.318-20.148-1.021-2.848-.3-5.7-.644-8.534-1.063l2.086,6.32a5.814,5.814,0,0,0,3.336,1.28l30.883,1.665a8.951,8.951,0,0,1,8.017,6.131,2.715,2.715,0,0,1-2.142,3.53l-34.1,5.558,3.894,11.8,34.551-5.632a3.185,3.185,0,0,1,3.537,2.145l1.288,3.9a2.622,2.622,0,0,1-2.069,3.41l-34.2,5.576,3.894,11.8,34.319-5.594a3.461,3.461,0,0,1,3.843,2.331l6.041,18.3,19.847-3.547-17.012-51.534a4.808,4.808,0,0,1,4.825-6.308l10.705.577a10.007,10.007,0,0,1,8.964,6.856l15.3,46.338,19.847-3.547L2552.7,712.689a4.807,4.807,0,0,1,4.824-6.308l10.706.577a10.007,10.007,0,0,1,8.964,6.856l11.963,36.242L2609,746.509l-10.346-31.342a4.808,4.808,0,0,1,4.825-6.308l10.7.578a10.007,10.007,0,0,1,8.964,6.856l8.631,26.146,19.847-3.547-7.013-21.247A4.807,4.807,0,0,1,2649.434,711.338Z" transform="translate(-2315.521 -657.726)" fill="#ec8d1d"/>
      <path id="Path_31" data-name="Path 31" d="M2611.374,653.76l19.308,1.041-4.384-8.475-31.94-1.722-14.183-.765-24.559-1.324-3.708-.2-42.25-2.279-21.4-1.154-35.587-1.919L2442.3,636.4l-6.02-.325L2419.605,607a4.849,4.849,0,0,0-4.206-2.436h-14.384a21.719,21.719,0,0,1-7.105-1.2l-5.856-2.027a21.726,21.726,0,0,0-7.106-1.2h-1.943a1.088,1.088,0,0,0-1.087,1.088V612.8a1.088,1.088,0,0,0,1.087,1.088h13.686a2.711,2.711,0,0,1,2.574,1.861l7.612,23.06a5.817,5.817,0,0,0,5.211,3.986l30.882,1.665a8.95,8.95,0,0,1,8.017,6.131h0a2.715,2.715,0,0,1-2.142,3.531l-35.029,5.71,3.894,11.8,35.482-5.784a3.185,3.185,0,0,1,3.537,2.145l1.287,3.9a2.622,2.622,0,0,1-2.068,3.41l-35.135,5.728,3.894,11.8,35.25-5.746a3.46,3.46,0,0,1,3.843,2.331l6.041,18.3,19.847-3.547-17.011-51.534a4.808,4.808,0,0,1,4.825-6.308l10.7.577a10.008,10.008,0,0,1,8.964,6.856l15.3,46.338,19.846-3.547-13.678-41.438a4.807,4.807,0,0,1,4.823-6.308l10.706.578a10.007,10.007,0,0,1,8.964,6.856l11.963,36.242,19.847-3.547-10.346-31.342a4.808,4.808,0,0,1,4.825-6.308l10.7.577a10.007,10.007,0,0,1,8.964,6.856l8.631,26.146,19.846-3.547-7.013-21.247A4.807,4.807,0,0,1,2611.374,653.76Z" transform="translate(-2276.48 -600.149)" fill="#fcc435"/>
      <path id="Rectangle_16" data-name="Rectangle 16" d="M0,0H19.515a0,0,0,0,1,0,0V32.851a3.305,3.305,0,0,1-3.305,3.305H3.305A3.305,3.305,0,0,1,0,32.851V0A0,0,0,0,1,0,0Z" transform="translate(24.221 83.103)" fill="#fcc435"/>
      <rect id="Rectangle_17" data-name="Rectangle 17" width="19.515" height="1.967" transform="translate(24.221 83.103)" fill="#764411" opacity="0.3"/>
      <path id="Path_32" data-name="Path 32" d="M2573.784,912.683h-30.73a2.135,2.135,0,0,0-2.135,2.135v34.037h35V914.818A2.135,2.135,0,0,0,2573.784,912.683Z" transform="translate(-2377.802 -794.423)" fill="#ec8d1d"/>
      <rect id="Rectangle_18" data-name="Rectangle 18" width="35" height="41.778" rx="5.643" transform="translate(161.333 118.26)" fill="#fcc435"/>
      <path id="Path_33" data-name="Path 33" d="M2675.6,728.123l-1.868-3.611-226.56-12.218h0l1.575,4.77h0L2675.6,728.123Z" transform="translate(-2319.526 -669.86)" fill="#764411" opacity="0.3"/>
      <g id="Group_10" data-name="Group 10" transform="translate(55.842 31.901)">
        <path id="Path_34" data-name="Path 34" d="M2271.322,691.919v-7.463h-4.581l-9.325,30.755,4.2-1.58Z" transform="translate(-2257.417 -684.456)" fill="#fff" opacity="0.5"/>
        <path id="Path_35" data-name="Path 35" d="M2359.253,733.287l-3.113,6.964h1.79l1.323-2.961Z" transform="translate(-2318.784 -714.81)" fill="#fff" opacity="0.5"/>
        <path id="Path_36" data-name="Path 36" d="M2397.789,696.94c0-.006,0-.013,0-.02l-9.26,20.725h7.636a1.625,1.625,0,0,0,.4-.052l1.224-2.742Z" transform="translate(-2338.917 -692.204)" fill="#fff" opacity="0.5"/>
        <path id="Path_37" data-name="Path 37" d="M2334.257,692.68h-1.789l-9.984,22.329h1.789Z" transform="translate(-2297.863 -689.568)" fill="#fff" opacity="0.5"/>
        <path id="Path_38" data-name="Path 38" d="M2343.677,704.767V694.011a1.33,1.33,0,0,0-1.33-1.33h-1.28l-9.983,22.329h8.016Z" transform="translate(-2303.209 -689.568)" fill="#fff" opacity="0.5"/>
        <path id="Path_39" data-name="Path 39" d="M2383.823,692.68a1.624,1.624,0,0,0-1.624,1.624v2.645l1.908-4.269Z" transform="translate(-2334.983 -689.568)" fill="#fff" opacity="0.5"/>
        <path id="Path_40" data-name="Path 40" d="M2281.113,716.844v-4l-7.946,17.771,2.152-.81Z" transform="translate(-2267.207 -702.101)" fill="#fff" opacity="0.5"/>
      </g>
      <g id="Group_11" data-name="Group 11" transform="translate(55.31 31.369)">
        <path id="Path_41" data-name="Path 41" d="M2256.543,714.869a.532.532,0,0,1-.188-1.029l12.52-4.713a1.616,1.616,0,0,0,1.042-1.505V684.114h-4.049a.532.532,0,0,1,0-1.064h4.58a.532.532,0,0,1,.532.532v24.04a2.684,2.684,0,0,1-1.73,2.5l-12.52,4.713A.535.535,0,0,1,2256.543,714.869Z" transform="translate(-2256.011 -683.05)" fill="#3f3f3f"/>
      </g>
      <g id="Group_12" data-name="Group 12" transform="translate(74.676 34.481)">
        <path id="Path_42" data-name="Path 42" d="M2327.5,714.668h-18.442a1.864,1.864,0,0,1-1.862-1.862V693.137a1.864,1.864,0,0,1,1.862-1.862H2327.5a1.864,1.864,0,0,1,1.862,1.862v19.668A1.864,1.864,0,0,1,2327.5,714.668Zm-18.442-22.329a.8.8,0,0,0-.8.8v19.668a.8.8,0,0,0,.8.8H2327.5a.8.8,0,0,0,.8-.8V693.137a.8.8,0,0,0-.8-.8Z" transform="translate(-2307.192 -691.275)" fill="#3f3f3f"/>
      </g>
      <g id="Group_13" data-name="Group 13" transform="translate(102.527 34.481)">
        <path id="Path_43" data-name="Path 43" d="M2391.357,714.668h-8.407a2.158,2.158,0,0,1-2.156-2.156V693.431a2.158,2.158,0,0,1,2.156-2.156h8.407a2.158,2.158,0,0,1,2.156,2.156v19.081A2.158,2.158,0,0,1,2391.357,714.668Zm-8.407-22.329a1.094,1.094,0,0,0-1.092,1.092v19.081a1.094,1.094,0,0,0,1.092,1.092h8.407a1.093,1.093,0,0,0,1.092-1.092V693.431a1.093,1.093,0,0,0-1.092-1.092Z" transform="translate(-2380.794 -691.275)" fill="#3f3f3f"/>
      </g>
      <path id="Path_44" data-name="Path 44" d="M2269.745,675.377h58.563a.716.716,0,0,1,.716.716v2a.716.716,0,0,1-.716.716h-55.138a5.679,5.679,0,0,1-2.825-.752l-1.14-.653a1.088,1.088,0,0,1-.547-.944h0A1.087,1.087,0,0,1,2269.745,675.377Z" transform="translate(-2208.562 -646.911)" fill="#fcc435"/>
      <path id="Path_45" data-name="Path 45" d="M2280.683,686.173h54.343v-1.718H2281.2Z" transform="translate(-2216.037 -652.555)" fill="#764411" opacity="0.3"/>
      <path id="Rectangle_19" data-name="Rectangle 19" d="M1.85,0h0A1.85,1.85,0,0,1,3.7,1.85v1.2A1.85,1.85,0,0,1,1.85,4.9h0A1.85,1.85,0,0,1,0,3.052V1.85A1.85,1.85,0,0,1,1.85,0Z" transform="translate(75.208 60.391)" fill="#3f3f3f"/>
      <rect id="Rectangle_20" data-name="Rectangle 20" width="1.513" height="3.735" rx="0.757" transform="translate(76.891 60.974)" fill="#1e1e1f"/>
      <path id="Path_46" data-name="Path 46" d="M2159.677,859.667h2.647V845.053h-2.647a16.63,16.63,0,0,0,0,14.614Z" transform="translate(-2139.768 -752.384)" fill="#fff"/>
      <path id="Path_47" data-name="Path 47" d="M2146.692,846.31l6.794,2.019v-4.157h-6.5a1.023,1.023,0,0,0-1.023,1.023v.136A1.022,1.022,0,0,0,2146.692,846.31Z" transform="translate(-2132.293 -751.836)" fill="#3f3f3f"/>
      <path id="Rectangle_21" data-name="Rectangle 21" d="M1.5,0h0A5.917,5.917,0,0,1,7.413,5.917V10.4A5.917,5.917,0,0,1,1.5,16.318h0a1.5,1.5,0,0,1-1.5-1.5V1.5A1.5,1.5,0,0,1,1.5,0Z" transform="translate(19.948 91.818)" fill="#fcc435"/>
      <g id="Group_14" data-name="Group 14" transform="translate(41.786 96.38)">
        <path id="Path_48" data-name="Path 48" d="M2336.387,911.929a2.453,2.453,0,0,0-2.452-2.414h-.041l-.054,0q-.071-1.189-.191-2.364l.054-.006a2.455,2.455,0,0,0,2.071-2.785c-.24-1.628-.552-3.264-.93-4.863a2.454,2.454,0,0,0-2.952-1.825l-.053.014q-.324-1.143-.7-2.266l.052-.019a2.454,2.454,0,0,0,1.421-3.166c-.584-1.535-1.243-3.065-1.957-4.546a2.453,2.453,0,0,0-3.276-1.144l-.049.025q-.562-1.044-1.166-2.061l.047-.028a2.454,2.454,0,0,0,.707-3.4c-.9-1.374-1.872-2.726-2.887-4.02a2.454,2.454,0,0,0-3.446-.416l-.042.035q-.773-.9-1.581-1.766l.039-.038a2.454,2.454,0,0,0-.035-3.47c-1.174-1.151-2.412-2.265-3.679-3.312a2.453,2.453,0,0,0-3.454.328l-.034.043q-.947-.715-1.924-1.39l.031-.045a2.454,2.454,0,0,0-.775-3.383c-1.394-.874-2.842-1.7-4.3-2.45a2.453,2.453,0,0,0-3.3,1.061l-.024.05q-1.078-.495-2.179-.945c.007-.017.014-.033.02-.051a2.454,2.454,0,0,0-1.485-3.136c-1.548-.553-3.14-1.045-4.731-1.464a2.453,2.453,0,0,0-3,1.749c0,.018-.008.036-.013.054q-1.155-.25-2.327-.45c0-.018.006-.036.008-.054a2.454,2.454,0,0,0-2.127-2.742c-1.627-.206-3.286-.344-4.931-.411a2.45,2.45,0,0,0-2.552,2.351c0,.018,0,.036,0,.054q-1.191,0-2.37.056c0-.018,0-.037,0-.055a2.454,2.454,0,0,0-2.66-2.229c-1.64.145-3.291.361-4.908.644a2.454,2.454,0,0,0-1.994,2.84c0,.018.007.036.011.054q-1.161.256-2.3.561c-.005-.018-.01-.036-.015-.053a2.454,2.454,0,0,0-3.078-1.6c-1.568.493-3.135,1.062-4.655,1.688a2.454,2.454,0,0,0-1.334,3.2c.007.017.016.033.023.05q-1.075.5-2.124,1.044l-.026-.048a2.454,2.454,0,0,0-3.351-.9c-1.424.819-2.831,1.71-4.181,2.649a2.453,2.453,0,0,0-.615,3.416c.01.015.021.029.033.044q-.943.719-1.854,1.477l-.036-.041a2.454,2.454,0,0,0-3.467-.166c-1.216,1.105-2.4,2.276-3.519,3.481a2.454,2.454,0,0,0,.128,3.468l.041.036q-.769.9-1.5,1.839l-.044-.033a2.454,2.454,0,0,0-3.422.578c-.953,1.34-1.861,2.738-2.7,4.154a2.454,2.454,0,0,0,.867,3.36l.048.027q-.557,1.047-1.071,2.12l-.05-.023a2.454,2.454,0,0,0-3.218,1.3c-.643,1.515-1.229,3.076-1.739,4.64a2.454,2.454,0,0,0,1.57,3.095l.053.015q-.316,1.139-.587,2.3l-.053-.011a2.454,2.454,0,0,0-2.862,1.963c-.3,1.613-.535,3.262-.7,4.9a2.455,2.455,0,0,0,2.2,2.684l.055,0q-.065,1.178-.081,2.369h-.053a2.454,2.454,0,0,0-2.378,2.527c.05,1.646.171,3.306.359,4.935a2.454,2.454,0,0,0,2.435,2.173,2.4,2.4,0,0,0,.284-.017l.055-.008q.188,1.174.425,2.333l-.053.012a2.454,2.454,0,0,0-1.782,2.978c.4,1.595.876,3.192,1.413,4.746a2.452,2.452,0,0,0,3.12,1.52l.051-.019q.437,1.1.92,2.186l-.05.024a2.454,2.454,0,0,0-1.1,3.293c.735,1.469,1.543,2.925,2.4,4.328a2.452,2.452,0,0,0,3.374.812l.046-.03q.663.983,1.366,1.935l-.044.033a2.454,2.454,0,0,0-.366,3.451c1.033,1.278,2.134,2.527,3.271,3.714a2.454,2.454,0,0,0,3.469.072l.038-.038q.858.819,1.75,1.6l-.036.042a2.454,2.454,0,0,0,.379,3.449c1.283,1.029,2.625,2.016,3.99,2.932a2.454,2.454,0,0,0,3.405-.67c.01-.015.019-.031.029-.046q1.012.617,2.053,1.19c-.009.017-.018.032-.026.049a2.453,2.453,0,0,0,1.109,3.288c1.475.731,3,1.407,4.529,2.008a2.453,2.453,0,0,0,3.181-1.387l.02-.052q1.121.384,2.264.722c0,.018-.01.035-.015.053a2.454,2.454,0,0,0,1.793,2.971c1.595.394,3.228.725,4.853.982a2.452,2.452,0,0,0,2.807-2.041c0-.018.005-.036.008-.054q1.173.132,2.36.215c0,.018,0,.036,0,.055a2.453,2.453,0,0,0,2.388,2.518c.521.014,1.051.021,1.573.021,1.123,0,2.258-.032,3.374-.1a2.454,2.454,0,0,0,2.31-2.59c0-.018,0-.036,0-.054q1.184-.12,2.352-.29c0,.018.006.036.009.055a2.452,2.452,0,0,0,2.869,1.952c1.617-.307,3.239-.688,4.82-1.132a2.454,2.454,0,0,0,1.7-3.026c0-.018-.011-.035-.016-.053q1.128-.372,2.235-.79l.021.051a2.452,2.452,0,0,0,3.223,1.287c1.51-.648,3.01-1.37,4.46-2.146a2.454,2.454,0,0,0,1.007-3.321l-.027-.047q1.019-.6,2.01-1.251l.031.045a2.454,2.454,0,0,0,3.424.565c1.335-.957,2.646-1.984,3.9-3.052a2.454,2.454,0,0,0,.272-3.46l-.036-.04q.867-.809,1.7-1.654l.04.038a2.453,2.453,0,0,0,3.466-.179c1.1-1.22,2.163-2.5,3.157-3.813a2.454,2.454,0,0,0-.471-3.438l-.044-.032q.675-.975,1.308-1.98l.047.028a2.453,2.453,0,0,0,3.347-.916c.816-1.43,1.579-2.912,2.268-4.4a2.454,2.454,0,0,0-1.2-3.257l-.05-.022q.449-1.1.852-2.217l.052.018a2.452,2.452,0,0,0,3.071-1.616c.487-1.57.913-3.181,1.264-4.788a2.453,2.453,0,0,0-1.873-2.921l-.055-.01q.2-1.164.353-2.344l.054.006c.07.006.14.009.209.009a2.454,2.454,0,0,0,2.442-2.248c.138-1.633.208-3.3.208-4.943C2336.395,912.569,2336.392,912.247,2336.387,911.929Z" transform="translate(-2220.27 -854.86)" fill="#282828"/>
        <circle id="Ellipse_1" data-name="Ellipse 1" cx="47.769" cy="47.769" r="47.769" transform="translate(10.28 10.259)" fill="#3f3f3f"/>
        <circle id="Ellipse_2" data-name="Ellipse 2" cx="40.957" cy="40.957" r="40.957" transform="translate(17.092 17.071)" fill="#4d4c4d"/>
        <circle id="Ellipse_3" data-name="Ellipse 3" cx="30.895" cy="30.895" r="30.895" transform="translate(14.357 58.028) rotate(-45)" fill="#3f3f3f"/>
        <circle id="Ellipse_4" data-name="Ellipse 4" cx="27.156" cy="27.156" r="27.156" transform="matrix(0.23, -0.973, 0.973, 0.23, 25.38, 78.219)" fill="#fcc435"/>
        <circle id="Ellipse_5" data-name="Ellipse 5" cx="25.617" cy="25.617" r="25.617" transform="translate(32.433 32.411)" fill="#f59f2f"/>
        <circle id="Ellipse_6" data-name="Ellipse 6" cx="22.672" cy="22.672" r="22.672" transform="translate(30.775 74.885) rotate(-76.717)" fill="#fcc435"/>
        <path id="Path_49" data-name="Path 49" d="M2368.424,957.779l-1.227-2.125,1.227-2.125h2.454l1.227,2.125-1.227,2.125Z" transform="translate(-2311.601 -916.194)" fill="#f59f2f"/>
        <path id="Path_50" data-name="Path 50" d="M2383.182,959.244l-.51-2.4,1.823-1.642,2.334.758.51,2.4L2385.516,960Z" transform="translate(-2321.22 -917.233)" fill="#f59f2f"/>
        <path id="Path_51" data-name="Path 51" d="M2396.591,965.5l.256-2.441,2.241-1,1.986,1.442-.256,2.44-2.242,1Z" transform="translate(-2329.873 -921.497)" fill="#f59f2f"/>
        <path id="Path_52" data-name="Path 52" d="M2406.92,975.932l1-2.242,2.44-.257,1.443,1.985-1,2.242-2.44.257Z" transform="translate(-2336.294 -928.566)" fill="#f59f2f"/>
        <path id="Path_53" data-name="Path 53" d="M2414,988.687l1.641-1.824,2.4.509.759,2.333-1.641,1.824-2.4-.509Z" transform="translate(-2340.694 -936.914)" fill="#f59f2f"/>
        <path id="Path_54" data-name="Path 54" d="M2368.424,1051.67l-1.227,2.125,1.227,2.125h2.454l1.227-2.125-1.227-2.125Z" transform="translate(-2311.601 -977.199)" fill="#f59f2f"/>
        <path id="Path_55" data-name="Path 55" d="M2383.182,1049.3l-.51,2.4,1.823,1.642,2.334-.758.51-2.4-1.823-1.642Z" transform="translate(-2321.22 -975.255)" fill="#f59f2f"/>
        <path id="Path_56" data-name="Path 56" d="M2396.591,1042.914l.256,2.441,2.241,1,1.986-1.442-.256-2.441-2.242-1Z" transform="translate(-2329.873 -970.86)" fill="#f59f2f"/>
        <path id="Path_57" data-name="Path 57" d="M2406.92,1033.132l1,2.242,2.44.257,1.443-1.985-1-2.242-2.44-.257Z" transform="translate(-2336.294 -964.442)" fill="#f59f2f"/>
        <path id="Path_58" data-name="Path 58" d="M2414,1020.078l1.641,1.824,2.4-.509.759-2.333-1.641-1.824-2.4.509Z" transform="translate(-2340.694 -955.794)" fill="#f59f2f"/>
        <path id="Path_59" data-name="Path 59" d="M2417.134,1002.929l2.125-1.228,2.125,1.226,0,2.454-2.124,1.228-2.126-1.226Z" transform="translate(-2342.642 -946.137)" fill="#f59f2f"/>
        <path id="Path_60" data-name="Path 60" d="M2356.513,959.244l.51-2.4L2355.2,955.2l-2.334.758-.51,2.4,1.823,1.642Z" transform="translate(-2302.375 -917.233)" fill="#f59f2f"/>
        <path id="Path_61" data-name="Path 61" d="M2343.407,965.5l-.255-2.441-2.242-1-1.986,1.442.256,2.44,2.242,1Z" transform="translate(-2294.027 -921.497)" fill="#f59f2f"/>
        <path id="Path_62" data-name="Path 62" d="M2332.424,975.932l-1-2.242-2.44-.257-1.443,1.985,1,2.242,2.44.257Z" transform="translate(-2286.953 -928.566)" fill="#f59f2f"/>
        <path id="Path_63" data-name="Path 63" d="M2325.477,988.687l-1.641-1.824-2.4.509-.76,2.333,1.641,1.824,2.4-.509Z" transform="translate(-2282.683 -936.914)" fill="#f59f2f"/>
        <path id="Path_64" data-name="Path 64" d="M2356.513,1049.3l.51,2.4-1.823,1.642-2.334-.758-.51-2.4,1.823-1.642Z" transform="translate(-2302.375 -975.255)" fill="#f59f2f"/>
        <path id="Path_65" data-name="Path 65" d="M2343.407,1042.914l-.255,2.441-2.242,1-1.986-1.442.256-2.441,2.242-1Z" transform="translate(-2294.027 -970.86)" fill="#f59f2f"/>
        <path id="Path_66" data-name="Path 66" d="M2332.424,1033.132l-1,2.242-2.44.257-1.443-1.985,1-2.242,2.44-.257Z" transform="translate(-2286.953 -964.442)" fill="#f59f2f"/>
        <path id="Path_67" data-name="Path 67" d="M2325.477,1020.078l-1.641,1.824-2.4-.509-.76-2.333,1.641-1.824,2.4.509Z" transform="translate(-2282.683 -955.794)" fill="#f59f2f"/>
        <path id="Path_68" data-name="Path 68" d="M2323.244,1002.929l-2.124-1.228-2.126,1.226v2.454l2.124,1.228,2.126-1.226Z" transform="translate(-2281.637 -946.137)" fill="#f59f2f"/>
        <path id="Path_69" data-name="Path 69" d="M2350.874,971.524a13.884,13.884,0,1,0,13.884,13.884A13.884,13.884,0,0,0,2350.874,971.524Zm12.557,13.169h-6.16a6.4,6.4,0,0,0-1.369-3.3l4.355-4.356A12.527,12.527,0,0,1,2363.43,984.693Zm-12.557,5.773a5.059,5.059,0,1,1,5.059-5.058A5.058,5.058,0,0,1,2350.874,990.466Zm8.374-14.442-4.355,4.355a6.413,6.413,0,0,0-3.3-1.369v-6.159A12.527,12.527,0,0,1,2359.247,976.024Zm-9.088-3.173v6.159a6.41,6.41,0,0,0-3.3,1.369l-4.355-4.355A12.526,12.526,0,0,1,2350.159,972.851Zm-8.67,4.183,4.356,4.356a6.4,6.4,0,0,0-1.369,3.3h-6.16A12.523,12.523,0,0,1,2341.49,977.034Zm-3.173,9.088h6.16a6.4,6.4,0,0,0,1.369,3.3l-4.356,4.356A12.524,12.524,0,0,1,2338.317,986.122Zm4.183,8.67,4.355-4.356a6.4,6.4,0,0,0,3.3,1.369v6.159A12.528,12.528,0,0,1,2342.5,994.792Zm9.088,3.173V991.8a6.407,6.407,0,0,0,3.3-1.369l4.355,4.356A12.529,12.529,0,0,1,2351.588,997.964Zm8.669-4.183-4.355-4.356a6.4,6.4,0,0,0,1.369-3.3h6.16A12.528,12.528,0,0,1,2360.257,993.781Z" transform="translate(-2292.824 -927.38)" fill="#f59f2f"/>
      </g>
      <g id="Group_16" data-name="Group 16" transform="translate(216.393 96.38)">
        <path id="Path_70" data-name="Path 70" d="M2797.834,911.929a2.453,2.453,0,0,0-2.452-2.414h-.041l-.054,0q-.071-1.189-.191-2.364l.054-.006a2.455,2.455,0,0,0,2.071-2.785c-.24-1.628-.552-3.264-.93-4.863a2.454,2.454,0,0,0-2.952-1.825l-.053.014q-.324-1.143-.7-2.266l.053-.019a2.454,2.454,0,0,0,1.42-3.166c-.584-1.535-1.243-3.065-1.957-4.546a2.454,2.454,0,0,0-3.276-1.144l-.049.025q-.562-1.044-1.166-2.061c.016-.01.032-.018.047-.028a2.454,2.454,0,0,0,.707-3.4c-.9-1.374-1.872-2.726-2.887-4.02a2.454,2.454,0,0,0-3.446-.416l-.042.035q-.772-.9-1.581-1.766l.039-.038a2.454,2.454,0,0,0-.035-3.47c-1.175-1.151-2.412-2.265-3.679-3.312a2.454,2.454,0,0,0-3.455.328c-.012.014-.022.029-.033.043q-.947-.715-1.924-1.39c.01-.015.021-.029.031-.045a2.454,2.454,0,0,0-.775-3.383c-1.394-.874-2.842-1.7-4.3-2.45a2.453,2.453,0,0,0-3.3,1.061c-.009.016-.016.033-.024.05q-1.078-.495-2.18-.945c.006-.017.014-.033.02-.051a2.454,2.454,0,0,0-1.486-3.136c-1.548-.553-3.139-1.045-4.731-1.464a2.453,2.453,0,0,0-3,1.749c0,.018-.008.036-.013.054q-1.155-.25-2.328-.45c0-.018.006-.036.009-.054a2.454,2.454,0,0,0-2.127-2.742c-1.627-.206-3.286-.344-4.932-.411a2.45,2.45,0,0,0-2.552,2.351c0,.018,0,.036,0,.054q-1.191,0-2.37.056c0-.018,0-.037,0-.055a2.454,2.454,0,0,0-2.66-2.229c-1.64.145-3.292.361-4.908.644a2.454,2.454,0,0,0-1.994,2.84c0,.018.007.036.011.054q-1.161.256-2.3.561c0-.018-.01-.036-.015-.053a2.454,2.454,0,0,0-3.078-1.6c-1.568.493-3.135,1.062-4.655,1.688a2.454,2.454,0,0,0-1.334,3.2c.007.017.015.033.023.05q-1.075.5-2.124,1.044l-.026-.048a2.454,2.454,0,0,0-3.351-.9c-1.424.819-2.83,1.71-4.181,2.649a2.453,2.453,0,0,0-.615,3.416l.032.044q-.943.719-1.854,1.477l-.035-.041a2.454,2.454,0,0,0-3.467-.166c-1.216,1.105-2.4,2.276-3.519,3.481a2.454,2.454,0,0,0,.128,3.468l.041.036q-.769.9-1.5,1.839l-.044-.033a2.453,2.453,0,0,0-3.422.578c-.954,1.34-1.861,2.738-2.7,4.154a2.454,2.454,0,0,0,.866,3.36l.049.027q-.557,1.047-1.071,2.12l-.05-.023a2.454,2.454,0,0,0-3.218,1.3c-.644,1.515-1.229,3.076-1.739,4.64a2.454,2.454,0,0,0,1.57,3.095l.054.015q-.318,1.139-.587,2.3l-.054-.011a2.453,2.453,0,0,0-2.861,1.963c-.3,1.613-.535,3.262-.7,4.9a2.455,2.455,0,0,0,2.2,2.684l.055,0q-.065,1.178-.081,2.369h-.053a2.454,2.454,0,0,0-2.378,2.527c.051,1.646.171,3.306.359,4.935a2.454,2.454,0,0,0,2.435,2.173,2.415,2.415,0,0,0,.285-.017l.054-.008q.189,1.174.425,2.333l-.053.012a2.454,2.454,0,0,0-1.782,2.978c.4,1.595.876,3.192,1.413,4.746a2.452,2.452,0,0,0,3.12,1.52l.052-.019q.437,1.1.92,2.186l-.05.024a2.454,2.454,0,0,0-1.1,3.293c.735,1.469,1.543,2.925,2.4,4.328a2.453,2.453,0,0,0,3.374.812l.045-.03q.663.983,1.367,1.935l-.044.033a2.454,2.454,0,0,0-.367,3.451c1.033,1.278,2.134,2.527,3.272,3.714a2.454,2.454,0,0,0,3.469.072l.038-.038q.857.819,1.75,1.6l-.035.042a2.454,2.454,0,0,0,.378,3.449c1.283,1.029,2.626,2.016,3.99,2.932a2.454,2.454,0,0,0,3.405-.67l.029-.046q1.012.617,2.053,1.19c-.008.017-.018.032-.026.049a2.454,2.454,0,0,0,1.109,3.288c1.475.731,3,1.407,4.529,2.008a2.453,2.453,0,0,0,3.181-1.387l.019-.052q1.122.384,2.264.722l-.014.053a2.454,2.454,0,0,0,1.793,2.971c1.594.394,3.227.725,4.853.982a2.453,2.453,0,0,0,2.807-2.041c0-.018,0-.036.007-.054q1.173.132,2.36.215c0,.018,0,.036,0,.055a2.454,2.454,0,0,0,2.388,2.518c.521.014,1.05.021,1.573.021,1.123,0,2.258-.032,3.374-.1a2.454,2.454,0,0,0,2.309-2.59c0-.018,0-.036,0-.054q1.183-.12,2.353-.29c0,.018.005.036.009.055a2.451,2.451,0,0,0,2.869,1.952c1.617-.307,3.239-.688,4.821-1.132a2.454,2.454,0,0,0,1.7-3.026l-.016-.053q1.129-.372,2.236-.79l.021.051a2.451,2.451,0,0,0,3.223,1.287c1.51-.648,3.011-1.37,4.46-2.146a2.454,2.454,0,0,0,1.007-3.321c-.008-.016-.018-.031-.027-.047q1.019-.6,2.01-1.251l.031.045a2.454,2.454,0,0,0,3.424.565c1.336-.957,2.647-1.984,3.9-3.052a2.454,2.454,0,0,0,.273-3.46l-.036-.04q.867-.809,1.7-1.654l.04.038a2.454,2.454,0,0,0,3.466-.179c1.1-1.22,2.163-2.5,3.157-3.813a2.453,2.453,0,0,0-.472-3.438l-.044-.032q.675-.975,1.308-1.98l.047.028a2.453,2.453,0,0,0,3.348-.916c.816-1.43,1.579-2.912,2.268-4.4a2.454,2.454,0,0,0-1.2-3.257l-.05-.022q.45-1.1.851-2.217l.053.018a2.452,2.452,0,0,0,3.071-1.616c.488-1.57.912-3.181,1.264-4.788a2.454,2.454,0,0,0-1.874-2.921l-.054-.01q.2-1.164.353-2.344l.054.006c.07.006.14.009.209.009a2.454,2.454,0,0,0,2.442-2.248c.138-1.633.207-3.3.207-4.943C2797.842,912.569,2797.839,912.247,2797.834,911.929Z" transform="translate(-2681.717 -854.86)" fill="#282828"/>
        <circle id="Ellipse_7" data-name="Ellipse 7" cx="47.769" cy="47.769" r="47.769" transform="translate(10.28 10.259)" fill="#3f3f3f"/>
        <circle id="Ellipse_8" data-name="Ellipse 8" cx="40.957" cy="40.957" r="40.957" transform="translate(17.106 17.071)" fill="#4d4c4d"/>
        <circle id="Ellipse_9" data-name="Ellipse 9" cx="30.895" cy="30.895" r="30.895" transform="translate(14.37 58.028) rotate(-45)" fill="#3f3f3f"/>
        <circle id="Ellipse_10" data-name="Ellipse 10" cx="27.156" cy="27.156" r="27.156" transform="translate(19.645 58.028) rotate(-45)" fill="#fcc435"/>
        <circle id="Ellipse_11" data-name="Ellipse 11" cx="26.05" cy="26.05" r="26.05" transform="translate(28.163 79.569) rotate(-80.783)" fill="#f59f2f"/>
        <circle id="Ellipse_12" data-name="Ellipse 12" cx="24.866" cy="24.866" r="24.866" transform="translate(33.183 33.162)" fill="#fcc435"/>
        <circle id="Ellipse_13" data-name="Ellipse 13" cx="23.514" cy="23.514" r="23.514" transform="translate(34.535 34.514)" fill="#f59f2f"/>
        <circle id="Ellipse_14" data-name="Ellipse 14" cx="22.614" cy="22.614" r="22.614" transform="translate(30.844 74.842) rotate(-76.717)" fill="#bf731a"/>
        <circle id="Ellipse_15" data-name="Ellipse 15" cx="21.209" cy="21.209" r="21.209" transform="translate(32.535 73.797) rotate(-76.717)" fill="#f59f2f"/>
        <circle id="Ellipse_16" data-name="Ellipse 16" cx="12.39" cy="12.39" r="12.39" transform="translate(43.144 67.24) rotate(-76.717)" fill="#fcc435"/>
        <g id="Group_15" data-name="Group 15" transform="translate(47.139 47.118)">
          <path id="Path_71" data-name="Path 71" d="M2832.356,981.624l-.647-1.12.647-1.12h1.294l.647,1.12-.647,1.12Z" transform="translate(-2822.093 -979.383)" fill="#f59f2f"/>
          <path id="Path_72" data-name="Path 72" d="M2840.137,982.4l-.269-1.266.962-.866,1.23.4.269,1.266-.961.866Z" transform="translate(-2827.165 -979.932)" fill="#f59f2f"/>
          <path id="Path_73" data-name="Path 73" d="M2847.208,985.694l.135-1.287,1.182-.526,1.047.76-.135,1.287-1.182.526Z" transform="translate(-2831.727 -982.179)" fill="#f59f2f"/>
          <path id="Path_74" data-name="Path 74" d="M2852.653,991.2l.526-1.182,1.287-.136.76,1.046-.526,1.182-1.287.136Z" transform="translate(-2835.112 -985.906)" fill="#f59f2f"/>
          <path id="Path_75" data-name="Path 75" d="M2856.385,997.919l.865-.962,1.266.268.4,1.23-.865.962-1.265-.268Z" transform="translate(-2837.432 -990.308)" fill="#f59f2f"/>
          <path id="Path_76" data-name="Path 76" d="M2832.356,1031.126l-.647,1.12.647,1.12h1.294l.647-1.12-.647-1.12Z" transform="translate(-2822.093 -1011.547)" fill="#f59f2f"/>
          <path id="Path_77" data-name="Path 77" d="M2840.137,1029.877l-.269,1.265.962.866,1.23-.4.269-1.266-.961-.866Z" transform="translate(-2827.165 -1010.522)" fill="#f59f2f"/>
          <path id="Path_78" data-name="Path 78" d="M2847.208,1026.509l.135,1.287,1.182.527,1.047-.76-.135-1.287-1.182-.526Z" transform="translate(-2831.727 -1008.205)" fill="#f59f2f"/>
          <path id="Path_79" data-name="Path 79" d="M2852.653,1021.352l.526,1.182,1.287.136.76-1.046-.526-1.182-1.287-.136Z" transform="translate(-2835.112 -1004.821)" fill="#f59f2f"/>
          <path id="Path_80" data-name="Path 80" d="M2856.385,1014.47l.865.962,1.266-.268.4-1.23-.865-.962-1.265.268Z" transform="translate(-2837.432 -1000.262)" fill="#f59f2f"/>
          <path id="Path_81" data-name="Path 81" d="M2858.038,1005.428l1.12-.647,1.121.646v1.294l-1.12.648-1.121-.646Z" transform="translate(-2838.459 -995.171)" fill="#f59f2f"/>
          <path id="Path_82" data-name="Path 82" d="M2826.077,982.4l.269-1.266-.961-.866-1.23.4-.269,1.266.961.866Z" transform="translate(-2817.229 -979.932)" fill="#f59f2f"/>
          <path id="Path_83" data-name="Path 83" d="M2819.168,985.694l-.135-1.287-1.182-.526-1.047.76.135,1.287,1.182.526Z" transform="translate(-2812.828 -982.179)" fill="#f59f2f"/>
          <path id="Path_84" data-name="Path 84" d="M2813.377,991.2l-.526-1.182-1.287-.136-.76,1.046.526,1.182,1.287.136Z" transform="translate(-2809.098 -985.906)" fill="#f59f2f"/>
          <path id="Path_85" data-name="Path 85" d="M2809.715,997.919l-.865-.962-1.266.268-.4,1.23.865.962,1.266-.268Z" transform="translate(-2806.848 -990.308)" fill="#f59f2f"/>
          <path id="Path_86" data-name="Path 86" d="M2826.077,1029.877l.269,1.265-.961.866-1.23-.4-.269-1.266.961-.866Z" transform="translate(-2817.229 -1010.522)" fill="#f59f2f"/>
          <path id="Path_87" data-name="Path 87" d="M2819.168,1026.509l-.135,1.287-1.182.527-1.047-.76.135-1.287,1.182-.526Z" transform="translate(-2812.828 -1008.205)" fill="#f59f2f"/>
          <path id="Path_88" data-name="Path 88" d="M2813.377,1021.352l-.526,1.182-1.287.136-.76-1.046.526-1.182,1.287-.136Z" transform="translate(-2809.098 -1004.821)" fill="#f59f2f"/>
          <path id="Path_89" data-name="Path 89" d="M2809.715,1014.47l-.865.962-1.266-.268-.4-1.23.865-.962,1.266.268Z" transform="translate(-2806.848 -1000.262)" fill="#f59f2f"/>
          <path id="Path_90" data-name="Path 90" d="M2808.538,1005.428l-1.12-.647-1.121.646v1.294l1.12.648,1.121-.646Z" transform="translate(-2806.296 -995.171)" fill="#f59f2f"/>
          <path id="Path_91" data-name="Path 91" d="M2823.1,988.871a7.32,7.32,0,1,0,7.32,7.32A7.319,7.319,0,0,0,2823.1,988.871Z" transform="translate(-2812.195 -985.281)" fill="#f59f2f"/>
          <path id="Path_92" data-name="Path 92" d="M2829.306,998.848a3.545,3.545,0,1,0,3.544,3.545A3.545,3.545,0,0,0,2829.306,998.848Z" transform="translate(-2818.396 -991.483)" fill="#fcc435"/>
        </g>
      </g>
      <g id="Group_25" data-name="Group 25" transform="translate(28.181 52.351)">
        <g id="Group_17" data-name="Group 17" transform="translate(1.251 9.856)">
          <path id="Path_93" data-name="Path 93" d="M2284.688,765.447H2188.07a.45.45,0,0,1,0-.9h96.617a.45.45,0,1,1,0,.9Z" transform="translate(-2187.62 -764.547)" fill="#2e2e2e"/>
        </g>
        <g id="Group_18" data-name="Group 18" transform="translate(1.251 18.935)">
          <path id="Path_94" data-name="Path 94" d="M2284.688,789.442H2188.07a.45.45,0,0,1,0-.9h96.617a.45.45,0,1,1,0,.9Z" transform="translate(-2187.62 -788.542)" fill="#2e2e2e"/>
        </g>
        <g id="Group_19" data-name="Group 19" transform="translate(0.882 0.613)">
          <path id="Path_95" data-name="Path 95" d="M2187.465,766.991a.818.818,0,0,1-.818-.818V740.94a.818.818,0,0,1,1.636,0v25.233A.818.818,0,0,1,2187.465,766.991Z" transform="translate(-2186.647 -740.122)" fill="#3f3f3f"/>
        </g>
        <g id="Group_20" data-name="Group 20" transform="translate(33.088 0.613)">
          <path id="Path_96" data-name="Path 96" d="M2272.579,766.991a.818.818,0,0,1-.818-.818V740.94a.818.818,0,1,1,1.635,0v25.233A.818.818,0,0,1,2272.579,766.991Z" transform="translate(-2271.76 -740.122)" fill="#3f3f3f"/>
        </g>
        <g id="Group_21" data-name="Group 21" transform="translate(65.294 0.613)">
          <path id="Path_97" data-name="Path 97" d="M2357.691,766.991a.818.818,0,0,1-.818-.818V740.94a.818.818,0,1,1,1.636,0v25.233A.818.818,0,0,1,2357.691,766.991Z" transform="translate(-2356.873 -740.122)" fill="#3f3f3f"/>
        </g>
        <g id="Group_22" data-name="Group 22" transform="translate(97.5 0.613)">
          <path id="Path_98" data-name="Path 98" d="M2442.8,766.991a.818.818,0,0,1-.818-.818V740.94a.818.818,0,1,1,1.636,0v25.233A.818.818,0,0,1,2442.8,766.991Z" transform="translate(-2441.986 -740.122)" fill="#3f3f3f"/>
        </g>
        <g id="Group_23" data-name="Group 23" transform="translate(0.882 0.702)">
          <path id="Path_99" data-name="Path 99" d="M2188.283,743.22v-2.134a.817.817,0,0,0-.449-.729h-.738a.817.817,0,0,0-.449.729v2.134Z" transform="translate(-2186.647 -740.357)" fill="#232323"/>
          <path id="Path_100" data-name="Path 100" d="M2441.986,741.086v2.134h1.636v-2.134a.818.818,0,0,0-.448-.729h-.739A.817.817,0,0,0,2441.986,741.086Z" transform="translate(-2345.368 -740.357)" fill="#232323"/>
          <path id="Path_101" data-name="Path 101" d="M2273.4,741.086a.816.816,0,0,0-.448-.729h-.739a.818.818,0,0,0-.448.729v2.134h1.635Z" transform="translate(-2239.554 -740.357)" fill="#232323"/>
          <path id="Path_102" data-name="Path 102" d="M2358.509,741.086a.817.817,0,0,0-.448-.729h-.739a.818.818,0,0,0-.448.729v2.134h1.636Z" transform="translate(-2292.461 -740.357)" fill="#232323"/>
        </g>
        <g id="Group_24" data-name="Group 24">
          <rect id="Rectangle_22" data-name="Rectangle 22" width="100.446" height="2.863" rx="1.431" fill="#3f3f3f"/>
        </g>
      </g>
      <rect id="Rectangle_23" data-name="Rectangle 23" width="114.255" height="4.087" rx="1.829" transform="translate(22.557 79.016)" fill="#fcc435"/>
      <circle id="Ellipse_17" data-name="Ellipse 17" cx="3.79" cy="3.79" r="3.79" transform="translate(212.067 105.361)" fill="#f59f2f"/>
      <path id="Path_103" data-name="Path 103" d="M2678.615,884.3a2.622,2.622,0,1,1-2.622-2.622A2.622,2.622,0,0,1,2678.615,884.3Z" transform="translate(-2460.136 -775.152)" fill="#fcc435"/>
      <circle id="Ellipse_18" data-name="Ellipse 18" cx="3.79" cy="3.79" r="3.79" transform="matrix(0.102, -0.995, 0.995, 0.102, 198.576, 146.454)" fill="#f59f2f"/>
      <circle id="Ellipse_19" data-name="Ellipse 19" cx="2.622" cy="2.622" r="2.622" transform="translate(199.641 141.024) rotate(-11.489)" fill="#fcc435"/>
      <path id="Path_104" data-name="Path 104" d="M2536.205,1012.971v1.7a2.136,2.136,0,0,0,2.135,2.135h30.73a2.135,2.135,0,0,0,2.135-2.135v-1.7Z" transform="translate(-2374.873 -856.763)" fill="#f59f2f"/>
      <rect id="Rectangle_24" data-name="Rectangle 24" width="1.477" height="38.591" transform="translate(179.725 118.26)" fill="#f59f2f"/>
    </g>
  </g>
</svg>
