<svg id="Group_4" data-name="Group 4" xmlns="http://www.w3.org/2000/svg" width="40.745" height="40.745" viewBox="0 0 40.745 40.745">
  <g id="Group_3" data-name="Group 3">
    <path id="Path_25" data-name="Path 25" d="M417.417,377.041a1.592,1.592,0,0,0-2.227.327c-.289.388-.6.768-.918,1.131a1.592,1.592,0,1,0,2.385,2.108c.38-.429.745-.88,1.087-1.339A1.591,1.591,0,0,0,417.417,377.041Z" transform="translate(-380.938 -346.747)" fill="#ff6531"/>
    <path id="Path_26" data-name="Path 26" d="M464.85,286.461a1.592,1.592,0,0,0-1.894,1.217c-.1.472-.227.946-.37,1.407a1.592,1.592,0,1,0,3.041.94c.169-.547.317-1.109.439-1.67A1.592,1.592,0,0,0,464.85,286.461Z" transform="translate(-425.709 -263.631)" fill="#ff6531"/>
    <path id="Path_27" data-name="Path 27" d="M336.263,442.4c-.423.236-.86.456-1.3.655a1.592,1.592,0,1,0,1.31,2.9c.522-.236,1.041-.5,1.542-.777a1.592,1.592,0,1,0-1.552-2.779Z" transform="translate(-307.444 -407.004)" fill="#ff6531"/>
    <path id="Path_28" data-name="Path 28" d="M163.106,77.592V89.665L157.27,95.5a1.592,1.592,0,0,0,2.251,2.251l6.3-6.3a1.592,1.592,0,0,0,.466-1.125V77.592a1.592,1.592,0,1,0-3.183,0Z" transform="translate(-144.325 -69.952)" fill="#ff6531"/>
    <path id="Path_29" data-name="Path 29" d="M39.153,3.422a1.592,1.592,0,0,0-1.592,1.592v4.42A20.374,20.374,0,1,0,20.372,40.745l.04,0,.04,0c.574,0,1.153-.024,1.722-.072a1.592,1.592,0,1,0-.266-3.172c-.481.04-.971.061-1.456.061l-.04,0-.04,0a17.189,17.189,0,1,1,14.8-25.943H30.793a1.592,1.592,0,0,0,0,3.183h4.859a5.062,5.062,0,0,0,2.648-.744,1.59,1.59,0,0,0,.143-.092,5.092,5.092,0,0,0,2.3-4.257v-4.7A1.592,1.592,0,0,0,39.153,3.422Z" transform="translate(0)" fill="#ff6531"/>
  </g>
</svg>
