<svg xmlns="http://www.w3.org/2000/svg" width="40.461" height="43.045" viewBox="0 0 40.461 43.045">
  <g id="registration" transform="translate(-15.368 0)">
    <path id="Path_1" data-name="Path 1" d="M45.9,0H20.633a2.116,2.116,0,0,0-2.113,2.114v.8H17.481a2.116,2.116,0,0,0-2.113,2.114V32.045a.631.631,0,1,0,1.261,0V5.032a.853.853,0,0,1,.852-.852H42.752a.853.853,0,0,1,.852.852v35.9a.853.853,0,0,1-.852.852H17.481a.853.853,0,0,1-.852-.852V34.988a.631.631,0,0,0-1.261,0v5.944a2.116,2.116,0,0,0,2.113,2.114H42.752a2.116,2.116,0,0,0,2.113-2.114v-.8H45.9a2.116,2.116,0,0,0,2.113-2.114V10.13a.631.631,0,0,0-1.261,0V38.014a.853.853,0,0,1-.852.852h-.8V5.032a2.116,2.116,0,0,0-2.113-2.114H19.78v-.8a.853.853,0,0,1,.852-.852H45.9a.853.853,0,0,1,.852.852V7.187a.631.631,0,0,0,1.261,0V2.113A2.116,2.116,0,0,0,45.9,0Z" transform="translate(0 0)" fill="#f15e2b"/>
    <path id="Path_2" data-name="Path 2" d="M427.575,148.8h-3.364a1.424,1.424,0,0,0-1.422,1.422v17.9c0,.012,0,.024,0,.036s0,.013,0,.02a.63.63,0,0,0,.031.145l.005.015q.011.029.024.057l0,.009,2.069,4.145a1.05,1.05,0,0,0,1.937,0l2.069-4.145,0-.011q.012-.026.022-.052l.007-.018a.623.623,0,0,0,.018-.066v0a.619.619,0,0,0,.01-.072c0-.008,0-.016,0-.025s0-.021,0-.032v-17.9A1.424,1.424,0,0,0,427.575,148.8Zm-1.682,22.865-1.454-2.913h2.908Zm1.843-4.174H424.05V154h3.686Zm0-14.745H424.05v-2.524a.161.161,0,0,1,.161-.161h3.364a.161.161,0,0,1,.161.161v2.524Z" transform="translate(-373.168 -136.286)" fill="#f15e2b"/>
    <path id="Path_3" data-name="Path 3" d="M58.218,391.835a1.3,1.3,0,0,0,1.3,1.3H63a1.3,1.3,0,0,0,1.3-1.3v-3.321l1.439-1.53a.631.631,0,0,0-.919-.864l-1.092,1.162a1.3,1.3,0,0,0-.731-.225H59.521a1.3,1.3,0,0,0-1.3,1.3Zm4.82-1.979v1.979a.042.042,0,0,1-.042.042H61.127a.632.632,0,0,0,.071-.064Zm-3.559-1.5a.042.042,0,0,1,.042-.042h3.232l-1.926,2.049-1.13-1.722a.627.627,0,0,0-.218-.2v-.082Zm0,2.252c.8,1.217.76,1.179.87,1.265h-.828a.042.042,0,0,1-.042-.042Z" transform="translate(-39.247 -353.476)" fill="#f15e2b"/>
    <path id="Path_4" data-name="Path 4" d="M162.818,428.091h-13.4a.631.631,0,0,0,0,1.261h13.4a.631.631,0,1,0,0-1.261Z" transform="translate(-122.207 -392.1)" fill="#f15e2b"/>
    <path id="Path_5" data-name="Path 5" d="M59.689,89.072H70.868A1.473,1.473,0,0,0,72.339,87.6V76.422a1.473,1.473,0,0,0-1.471-1.471H59.689a1.473,1.473,0,0,0-1.471,1.471V87.6A1.473,1.473,0,0,0,59.689,89.072Zm-.21-12.65a.21.21,0,0,1,.21-.21H70.868a.21.21,0,0,1,.21.21V87.6a.21.21,0,0,1-.21.21H59.689a.21.21,0,0,1-.21-.21Z" transform="translate(-39.247 -68.65)" fill="#f15e2b"/>
    <path id="Path_6" data-name="Path 6" d="M106.14,111.545a.631.631,0,0,0,.631-.63v-1.362a1.831,1.831,0,0,1,1.816-1.824h.016a1.831,1.831,0,0,1,1.816,1.824v.731h-1.336a.631.631,0,0,0,0,1.261h1.966a.63.63,0,0,0,.631-.63v-1.362a3.064,3.064,0,0,0-.9-2.182,3.12,3.12,0,0,0-.349-.3,2.881,2.881,0,1,0-3.664,0,3.125,3.125,0,0,0-.349.3,3.064,3.064,0,0,0-.9,2.182v1.362a.628.628,0,0,0,.63.63Zm2.455-8.317a1.62,1.62,0,0,1,.005,3.24h-.011a1.62,1.62,0,0,1,.005-3.24Z" transform="translate(-82.563 -93.394)" fill="#f15e2b"/>
    <path id="Path_7" data-name="Path 7" d="M242.468,112.828h5.573a.631.631,0,1,0,0-1.261h-5.573a.631.631,0,1,0,0,1.261Z" transform="translate(-207.429 -102.187)" fill="#f15e2b"/>
    <path id="Path_8" data-name="Path 8" d="M242.468,155.349h5.573a.631.631,0,1,0,0-1.261h-5.573a.631.631,0,1,0,0,1.261Z" transform="translate(-207.429 -141.133)" fill="#f15e2b"/>
    <path id="Path_9" data-name="Path 9" d="M242.468,200.7h5.573a.631.631,0,1,0,0-1.261h-5.573a.631.631,0,1,0,0,1.261Z" transform="translate(-207.429 -182.673)" fill="#f15e2b"/>
    <path id="Path_10" data-name="Path 10" d="M58.849,273.126h21.01a.631.631,0,0,0,0-1.261H58.849a.631.631,0,0,0,0,1.261Z" transform="translate(-39.247 -249.009)" fill="#f15e2b"/>
    <path id="Path_11" data-name="Path 11" d="M58.849,315.646h21.01a.631.631,0,0,0,0-1.261H58.849a.631.631,0,0,0,0,1.261Z" transform="translate(-39.247 -287.954)" fill="#f15e2b"/>
    <path id="Path_12" data-name="Path 12" d="M58.849,358.166h21.01a.631.631,0,1,0,0-1.261H58.849a.631.631,0,1,0,0,1.261Z" transform="translate(-39.247 -326.899)" fill="#f15e2b"/>
  </g>
</svg>
