<svg xmlns="http://www.w3.org/2000/svg" width="28.424" height="40.268" viewBox="0 0 28.424 40.268">
  <g id="sand-timer" transform="translate(-75)">
    <path id="Path_34" data-name="Path 34" d="M99.871,10.659V7.106h3.553V0H75V7.106h3.553v3.553a10.67,10.67,0,0,0,5.779,9.475,10.67,10.67,0,0,0-5.779,9.475v3.553H75v7.106h28.424V33.162H99.871V29.609a10.67,10.67,0,0,0-5.779-9.475A10.67,10.67,0,0,0,99.871,10.659Zm-22.5-5.922V2.369h23.687V4.737ZM97.5,7.106V9.475H80.922V7.106ZM88.028,21.4v3.832l-6.913,2.592A8.312,8.312,0,0,1,88.028,21.4ZM101.056,35.53V37.9H77.369V35.53ZM80.922,33.162V30.429l8.29-3.109L97.5,30.429v2.732Zm16.388-5.335L90.4,25.235V21.4a8.312,8.312,0,0,1,6.913,6.424Zm-8.1-8.878a8.3,8.3,0,0,1-8.205-7.106H97.418A8.3,8.3,0,0,1,89.212,18.95Z" fill="#ff6531"/>
  </g>
</svg>
