<svg xmlns="http://www.w3.org/2000/svg" width="46.612" height="29.598" viewBox="0 0 46.612 29.598">
  <g id="truck_3_" data-name="truck (3)" transform="translate(0 -93.443)">
    <path id="Path_1" data-name="Path 1" d="M45.462,110.008l-2.072-.659v-6.167a1.779,1.779,0,0,0-1.777-1.777H37.065a.683.683,0,0,0,0,1.366h4.547a.412.412,0,0,1,.412.412v.964H36.972a2.509,2.509,0,0,0-2.506,2.506v1.372a2.509,2.509,0,0,0,2.506,2.506H42.6l2.447.778a.283.283,0,0,1,.2.271v1.068h-.655a.683.683,0,0,0,0,1.366h.655v.877a.285.285,0,0,1-.285.285H42.591a5.565,5.565,0,0,0-10.139,0H30.475v-8.988a3.419,3.419,0,0,1,3.415-3.415h.445a.683.683,0,1,0,0-1.366h-.445a4.786,4.786,0,0,0-4.781,4.781v1.187H27.621a1.4,1.4,0,0,0-1.395,1.395v3.88H21.658v-1.107h1.089a.683.683,0,0,0,.568-.3L30.7,100.156h.762a2.13,2.13,0,0,0,1.468-.584l2.043-1.93,3.089-.938a.683.683,0,0,0,.484-.653V94.126a.683.683,0,0,0-.683-.683H34.039a2.129,2.129,0,0,0-1.468.584L30.609,95.88h-9.17a.683.683,0,1,0,0,1.366h9.442a.683.683,0,0,0,.469-.186l2.159-2.04a.769.769,0,0,1,.53-.211h3.139v.736l-2.759.837a.683.683,0,0,0-.271.157l-2.159,2.04a.769.769,0,0,1-.53.211H6.383a.683.683,0,0,0-.507.226l-3.165,3.512a.772.772,0,0,1-1.147-1.034l3.6-3.994a.773.773,0,0,1,.574-.255H18.709a.683.683,0,1,0,0-1.366H5.736a2.141,2.141,0,0,0-1.588.707l-3.6,3.994a2.138,2.138,0,0,0,3.176,2.862l.073-.081.867,1.053v8.234H4.3A3.829,3.829,0,0,0,.9,114.7l-.441.839a.683.683,0,0,0,.6,1H5.109a5.568,5.568,0,1,0,10.976,0h2.08v1.015a1.489,1.489,0,0,0,1.488,1.488h1.322a.683.683,0,1,0,0-1.366H19.653a.122.122,0,0,1-.122-.122v-1.015h7.758v1.015a.122.122,0,0,1-.122.122H23.706a.683.683,0,1,0,0,1.366h3.461a1.489,1.489,0,0,0,1.488-1.488v-1.015h3.378a5.568,5.568,0,1,0,10.976,0h1.953a1.652,1.652,0,0,0,1.65-1.65v-3.31a1.644,1.644,0,0,0-1.15-1.573Zm-9.63-1.983v-1.372a1.142,1.142,0,0,1,1.141-1.141h5.052v3.654H36.972a1.142,1.142,0,0,1-1.141-1.141Zm-8.239.743a.029.029,0,0,1,.029-.029H29.11v3.909H27.592Zm-7.3,3.88H13.37q-.208-.12-.426-.222v-.885h7.349Zm-5.611,5.508h.061a4.179,4.179,0,0,1-.733,1.764l-.042-.042a.683.683,0,1,0-.966.966l.042.042a4.178,4.178,0,0,1-1.764.733v-.061a.683.683,0,0,0-1.366,0v.061a4.178,4.178,0,0,1-1.764-.733l.042-.042a.683.683,0,0,0-.966-.966l-.042.042a4.18,4.18,0,0,1-.733-1.764h.061a.683.683,0,1,0,0-1.366H6.451a4.178,4.178,0,0,1,.733-1.764l.042.042a.683.683,0,0,0,.966-.966l-.042-.042a4.179,4.179,0,0,1,1.764-.733v.061a.683.683,0,1,0,1.366,0v-.061a4.178,4.178,0,0,1,1.764.733L13,114.1a.683.683,0,0,0,.966.966l.042-.042a4.178,4.178,0,0,1,.733,1.764h-.061a.683.683,0,0,0,0,1.366Zm1.532-18-5.629,9.3-2.566-3.116,3.712-6.183h4.483Zm6.1,0L16.3,110.175H11.745l6.065-10.02ZM10.329,111.292a.683.683,0,0,0,.527.249h.723v.453a5.533,5.533,0,0,0-3.222.384V108.9Zm12.054-1.117H17.889l6.015-10.02h5.152Zm-15.7-10.02h3.451L7.1,105.22l-2.375-2.885Zm-.656,5.917.96,1.166v5.409h-.96Zm-3.829,9.1a2.466,2.466,0,0,1,2.1-1.161H6.239a5.576,5.576,0,0,0-.711,1.161Zm13.465,0a5.575,5.575,0,0,0-.711-1.161H29.11v1.161Zm25.939,2.981h.061a4.179,4.179,0,0,1-.733,1.764l-.042-.042a.683.683,0,1,0-.966.966l.042.042a4.178,4.178,0,0,1-1.764.733v-.061a.683.683,0,0,0-1.366,0v.061a4.179,4.179,0,0,1-1.764-.733l.042-.042a.683.683,0,0,0-.966-.966l-.042.042a4.179,4.179,0,0,1-.733-1.764h.061a.683.683,0,1,0,0-1.366h-.061a4.178,4.178,0,0,1,.733-1.764l.042.042a.683.683,0,0,0,.966-.966l-.042-.042a4.178,4.178,0,0,1,1.764-.733v.061a.683.683,0,0,0,1.366,0v-.061a4.178,4.178,0,0,1,1.764.733l-.042.042a.683.683,0,0,0,.966.966l.042-.042a4.178,4.178,0,0,1,.733,1.764h-.061a.683.683,0,0,0,0,1.366Z" transform="translate(0)" fill="#f15d2a"/>
    <path id="Path_2" data-name="Path 2" d="M389.741,332.757A2.243,2.243,0,1,0,391.984,335,2.245,2.245,0,0,0,389.741,332.757Zm0,3.12a.877.877,0,1,1,.877-.877A.878.878,0,0,1,389.741,335.877Z" transform="translate(-352.22 -217.527)" fill="#f15d2a"/>
    <path id="Path_3" data-name="Path 3" d="M94,332.757A2.243,2.243,0,1,0,96.246,335,2.245,2.245,0,0,0,94,332.757Zm0,3.12A.877.877,0,1,1,94.88,335,.878.878,0,0,1,94,335.877Z" transform="translate(-83.406 -217.527)" fill="#f15d2a"/>
  </g>
</svg>
