<svg xmlns="http://www.w3.org/2000/svg" width="40.072" height="40.072" viewBox="0 0 40.072 40.072">
  <g id="seller" transform="translate(-0.95 -0.95)">
    <path id="Path_8" data-name="Path 8" d="M21.184,42.092a7.092,7.092,0,1,0-7.092,7.092A7.1,7.1,0,0,0,21.184,42.092Zm-7.092,5.8a5.8,5.8,0,1,1,5.8-5.8A5.809,5.809,0,0,1,14.092,47.894Z" transform="translate(-2.132 -12.08)" fill="#f15d2a" stroke="#f15d2a" stroke-width="0.1"/>
    <path id="Path_9" data-name="Path 9" d="M16.934,41.579a.645.645,0,0,1,.645.645h1.289a1.932,1.932,0,0,0-1.289-1.816V39H16.289v1.289H15v1.934a1.936,1.936,0,0,0,1.934,1.934.645.645,0,0,1,.645.645v.645h-.645a.645.645,0,0,1-.645-.645H15a1.931,1.931,0,0,0,1.289,1.816v1.408h1.289V46.737h1.289V44.8a1.936,1.936,0,0,0-1.934-1.934.645.645,0,0,1-.645-.645v-.645Z" transform="translate(-4.974 -13.501)" fill="#f15d2a" stroke="#f15d2a" stroke-width="0.1"/>
    <path id="Path_10" data-name="Path 10" d="M11,45h1.289v1.289H11Z" transform="translate(-3.553 -15.633)" fill="#f15d2a" stroke="#f15d2a" stroke-width="0.1"/>
    <path id="Path_11" data-name="Path 11" d="M23,45h1.289v1.289H23Z" transform="translate(-7.816 -15.633)" fill="#f15d2a" stroke="#f15d2a" stroke-width="0.1"/>
    <path id="Path_12" data-name="Path 12" d="M39.683,28.078A9.037,9.037,0,0,0,33.464,19.5a5.157,5.157,0,1,0-5.617,0A9.017,9.017,0,0,0,21.673,27.2l-.522-.174a9.608,9.608,0,0,0-.578-1.4l.832-1.664-.42-.42V19.052a9.037,9.037,0,0,0-6.219-8.573,5.158,5.158,0,1,0-5.614,0,9.037,9.037,0,0,0-6.219,8.573v4.486l-.42.42.832,1.664a9.579,9.579,0,0,0-.578,1.4L1,27.613v4.8L2.768,33a9.608,9.608,0,0,0,.578,1.4l-.832,1.665,3.392,3.392,1.664-.832a9.649,9.649,0,0,0,1.4.578l.589,1.768H39.683V31.946a1.291,1.291,0,0,0,1.289-1.289V29.367a1.291,1.291,0,0,0-1.289-1.289Zm-1.289,0H36.459V25.5H35.17v2.579h-3.4L35.3,21.9A7.722,7.722,0,0,1,38.393,28.078Zm-7.737-7.737a7.783,7.783,0,0,1,1.516.151l-1.516,1.516L29.138,20.49A7.818,7.818,0,0,1,30.657,20.341ZM32.5,24.194l-.981-1.226,2.052-2.052c.217.088.427.188.634.3Zm-2.709-1.226-.981,1.226L27.1,21.205c.207-.107.417-.207.632-.295Zm.864.984L31.813,25.4l-1.157,2.025L29.5,25.4Zm-3.868-8.769a3.868,3.868,0,1,1,3.868,3.868A3.872,3.872,0,0,1,26.788,15.184Zm-1.6,7.424a7.835,7.835,0,0,1,.829-.709l3.531,6.18h-3.4V25.5H24.854v2.579H22.92A7.686,7.686,0,0,1,25.186,22.607ZM19.7,19.052v3.2l-1.683-1.683-.251.126V16.473H16.473v4.863l-.123.062a9.65,9.65,0,0,0-1.4-.578l-.589-1.768H13.071L16.6,12.876A7.722,7.722,0,0,1,19.7,19.052ZM8.41,12.185a7.669,7.669,0,0,1,1.979-.709l-.563,3.186Zm3.315-.858c.079,0,.155-.012.235-.012s.156.01.235.012l.9,5.085L11.96,18.4l-1.134-1.985Zm2.369,3.335-.563-3.186a7.669,7.669,0,0,1,1.979.709Zm-6-8.5a3.868,3.868,0,1,1,3.868,3.868A3.872,3.872,0,0,1,8.092,6.158ZM4.224,19.052a7.722,7.722,0,0,1,3.1-6.176l3.529,6.176H9.561l-.59,1.768a9.608,9.608,0,0,0-1.4.578l-.122-.062V16.473H6.158v4.218l-.251-.126L4.224,22.248ZM11.96,39.683H10.491l-.509-1.525-.327-.094a8.28,8.28,0,0,1-1.763-.727l-.3-.166-1.435.717L4.082,35.81,4.8,34.375l-.166-.3a8.35,8.35,0,0,1-.727-1.762l-.093-.328-1.524-.507V28.542l1.525-.508.093-.328a8.322,8.322,0,0,1,.727-1.762l.166-.3-.717-1.435,2.078-2.079,1.434.718.3-.166a8.28,8.28,0,0,1,1.763-.727l.327-.094.509-1.523H13.43l.509,1.525.327.094a8.28,8.28,0,0,1,1.763.727l.3.166,1.434-.718,2.078,2.079-.717,1.435.166.3a8.35,8.35,0,0,1,.727,1.762l.093.328,1.524.507v2.939l-1.525.508-.093.328a8.322,8.322,0,0,1-.727,1.762l-.166.3.717,1.435-2.078,2.078-1.435-.717-.3.166a8.28,8.28,0,0,1-1.763.727l-.327.094-.508,1.524Zm26.433,0h-23.6l.16-.479a9.578,9.578,0,0,0,1.4-.578l1.664.832,3.392-3.392L20.575,34.4a9.579,9.579,0,0,0,.578-1.4l1.768-.589v-.465H38.393Zm1.289-9.026H22.92V29.367H39.683Z" transform="translate(0)" fill="#f15d2a" stroke="#f15d2a" stroke-width="0.1"/>
    <path id="Path_13" data-name="Path 13" d="M55,57h1.289v1.289H55Z" transform="translate(-19.186 -19.896)" fill="#f15d2a" stroke="#f15d2a" stroke-width="0.1"/>
    <path id="Path_14" data-name="Path 14" d="M51,57h1.289v1.289H51Z" transform="translate(-17.764 -19.896)" fill="#f15d2a" stroke="#f15d2a" stroke-width="0.1"/>
    <path id="Path_15" data-name="Path 15" d="M47,57h1.289v1.289H47Z" transform="translate(-16.343 -19.896)" fill="#f15d2a" stroke="#f15d2a" stroke-width="0.1"/>
  </g>
</svg>
