<svg xmlns="http://www.w3.org/2000/svg" width="53.375" height="61.915" viewBox="0 0 53.375 61.915">
  <g id="driver-grey" transform="translate(1816 -180.5)">
    <path id="Path_620" data-name="Path 620" d="M192.5,245.176v1.086a6.959,6.959,0,0,0,10.675,0v-1.086a10.584,10.584,0,0,1-10.675,0Zm0,0" transform="translate(-1982.88 -31.96)" fill="#646463"/>
    <path id="Path_621" data-name="Path 621" d="M138.635,135.491V129.48a3.183,3.183,0,0,0,0,6.011Zm0,0" transform="translate(-1934.353 68.297)" fill="#646463"/>
    <path id="Path_622" data-name="Path 622" d="M49.1,205.406,31.011,187.312v3.828a5.271,5.271,0,0,1-.229,1.464l15.3,15.3a16.132,16.132,0,0,1,3.022-2.5Zm0,0" transform="translate(-1842.741 18.182)" fill="#646463"/>
    <path id="Path_623" data-name="Path 623" d="M142.729,322.135a11.754,11.754,0,0,1,11.688,10.675h2.135a13.863,13.863,0,0,0-27.647,0h2.135a11.754,11.754,0,0,1,11.688-10.675Zm0,0" transform="translate(-1927.771 -96.8)" fill="#646463"/>
    <path id="Path_624" data-name="Path 624" d="M.5,137.473v13.483a3.2,3.2,0,0,0,2.135-3v-7.473A3.2,3.2,0,0,0,.5,137.473Zm0,0" transform="translate(-1816.5 61.371)" fill="#646463"/>
    <path id="Path_625" data-name="Path 625" d="M138.635,12.81h2.135v1.068h5.759a11.6,11.6,0,0,0,6.459-1.956l.729-.486.618.619a6.17,6.17,0,0,0,3.515,1.753v-1h2.135v2.243a5.3,5.3,0,0,1,2.135.986v-4.86a6.622,6.622,0,0,0-3.679-5.955l-.155-.078-1.7-1.7a11.766,11.766,0,0,0-20.084,8.32V16.04a5.284,5.284,0,0,1,2.135-.986Zm0,0" transform="translate(-1934.353 180.5)" fill="#646463"/>
    <path id="Path_626" data-name="Path 626" d="M185.58,115.32V107.8a8.263,8.263,0,0,1-4.387-1.82,13.734,13.734,0,0,1-6.934,1.871H168.5v7.473a8.54,8.54,0,0,0,17.08,0Zm-13.878-3.2a1.068,1.068,0,1,1,1.068-1.068A1.068,1.068,0,0,1,171.7,112.118Zm5.338,8.54a4.274,4.274,0,0,1-4.27-4.27H174.9a2.135,2.135,0,1,0,4.27,0h2.135A4.274,4.274,0,0,1,177.04,120.658Zm4.27-9.607a1.068,1.068,0,1,1,1.068,1.068A1.068,1.068,0,0,1,181.31,111.05Zm0,0" transform="translate(-1962.083 88.665)" fill="#646463"/>
    <path id="Path_627" data-name="Path 627" d="M312.5,135.484a3.184,3.184,0,0,0,0-6.012Zm0,0" transform="translate(-2086.867 68.304)" fill="#646463"/>
    <path id="Path_628" data-name="Path 628" d="M182.583,358.2a9.644,9.644,0,0,0-3.2,2.317l11.8,11.8H192.4a4.138,4.138,0,0,1,.011-4.29Zm0,0" transform="translate(-1971.51 -129.902)" fill="#646463"/>
    <path id="Path_629" data-name="Path 629" d="M297.04,388.27h2.135V390.4h-8.54a2.135,2.135,0,1,0,0,4.27H301.31V384h-4.27Zm0,0" transform="translate(-2066.07 -152.26)" fill="#646463"/>
    <path id="Path_630" data-name="Path 630" d="M128.5,349.592a16.2,16.2,0,0,1,.9-1.382l-.9-.9Zm0,0" transform="translate(-1927.42 -120.468)" fill="#646463"/>
    <path id="Path_631" data-name="Path 631" d="M222.4,352a9.561,9.561,0,0,0-1.555.138l9.008,9.008a4.232,4.232,0,0,1,2.093-.6A9.619,9.619,0,0,0,222.4,352Zm0,0" transform="translate(-2007.441 -124.53)" fill="#646463"/>
    <path id="Path_632" data-name="Path 632" d="M170.626,266.848,159.4,264.743a9.087,9.087,0,0,1-13.676,0l-5.471,1.026,5.67,5.671a15.938,15.938,0,0,1,20.517,6.6v-6.991h2.135v7.473h6.405v-6.427A5.341,5.341,0,0,0,170.626,266.848Zm0,0" transform="translate(-1937.605 -48.916)" fill="#646463"/>
    <path id="Path_633" data-name="Path 633" d="M70.905,298.438l-5.062-5.062a5.317,5.317,0,0,0-1.343,3.53v6.427h6.405Zm0,0" transform="translate(-1871.96 -73.728)" fill="#646463"/>
    <path id="Path_634" data-name="Path 634" d="M91.175,390.4h-8.54V388.27H84.77V384H80.5v10.675H91.175a2.135,2.135,0,1,0,0-4.27Zm0,0" transform="translate(-1885.825 -152.26)" fill="#646463"/>
    <path id="Path_635" data-name="Path 635" d="M160.965,392.311a4.271,4.271,0,0,1,4.208,4.264,4.224,4.224,0,0,1-.594,2.135H172.2L162.15,388.656A9.519,9.519,0,0,0,160.965,392.311Zm0,0" transform="translate(-1955.553 -156.295)" fill="#646463"/>
  </g>
</svg>
