<svg id="phone-orange" xmlns="http://www.w3.org/2000/svg" width="61.915" height="61.915" viewBox="0 0 61.915 61.915">
  <g id="Group_6620" data-name="Group 6620">
    <path id="Path_2739" data-name="Path 2739" d="M56.947,40.64a35.153,35.153,0,0,1-11.04-1.758A5.046,5.046,0,0,0,41,39.916l-6.962,5.255a38.473,38.473,0,0,1-17.3-17.294l5.1-6.78a5,5,0,0,0,1.231-5.071A35.207,35.207,0,0,1,21.307,4.968,4.974,4.974,0,0,0,16.339,0H4.968A4.974,4.974,0,0,0,0,4.968,57.011,57.011,0,0,0,56.947,61.915a4.974,4.974,0,0,0,4.968-4.968V45.608A4.974,4.974,0,0,0,56.947,40.64Z" fill="#ff6531"/>
  </g>
</svg>
