<svg xmlns="http://www.w3.org/2000/svg" width="85" height="62" viewBox="0 0 85 62">
  <g id="vendor-orange" transform="translate(-1.133 -4)">
    <g id="_3_User" data-name="3 User" transform="translate(1 4)">
      <path id="_3_Friends" data-name="3 Friends" d="M17.727,51.461c0-8.436,11.245-10.619,24.577-10.619,13.255,0,24.574,2.106,24.574,10.543S55.633,62,42.3,62C29.046,62,17.727,59.89,17.727,51.461Zm56.015,1.562c1.137-10.724-7.914-15.809-10.258-16.98a.174.174,0,0,1-.111-.181.146.146,0,0,1,.125-.1,59.677,59.677,0,0,1,12.532,1.1c4.263.84,7.069,2.556,8.234,5.05a7.489,7.489,0,0,1,0,6.473c-1.78,3.868-7.511,5.113-9.74,5.433a.691.691,0,0,1-.1.008A.707.707,0,0,1,73.742,53.023Zm-63.265.8C8.252,53.5,2.518,52.256.741,48.385a7.433,7.433,0,0,1,0-6.469C1.9,39.419,4.7,37.7,8.971,36.859a60.271,60.271,0,0,1,12.532-1.1.142.142,0,0,1,.122.1.179.179,0,0,1-.108.185C19.17,37.215,10.119,42.3,11.256,53.02a.689.689,0,0,1-.779.8ZM26.041,16.4a16.264,16.264,0,1,1,32.526,0,16.264,16.264,0,1,1-32.526,0ZM63.992,30.386a13.08,13.08,0,0,1-1.867-.181.616.616,0,0,1-.41-.949,22.689,22.689,0,0,0-.327-25.619.413.413,0,0,1-.063-.429.5.5,0,0,1,.32-.192,13.512,13.512,0,0,1,2.737-.282A13.847,13.847,0,0,1,77.613,20.227,13.567,13.567,0,0,1,64.365,30.391C64.241,30.391,64.117,30.389,63.992,30.386ZM7.386,20.227A13.847,13.847,0,0,1,20.617,2.734a13.6,13.6,0,0,1,2.74.282.519.519,0,0,1,.316.192.406.406,0,0,1-.063.425,22.686,22.686,0,0,0-.323,25.622.617.617,0,0,1-.414.949,12.641,12.641,0,0,1-1.867.181c-.125,0-.248,0-.373,0A13.574,13.574,0,0,1,7.386,20.227Z" transform="translate(0.133 0)" fill="#ff6531"/>
    </g>
  </g>
</svg>
